<svg xmlns="http://www.w3.org/2000/svg" viewBox="0 0 85.67999 128">
  <g id="Layer_2" data-name="Layer 2">
    <g id="Layer_1-2" data-name="Layer 1">
      <path d="M11.54236,66.73511,8.3927,71.11328v.04035h4.21918V66.85449q0-1.01147.05969-2.0213h-.05969C12.21582,65.58661,11.89886,66.14075,11.54236,66.73511Z" />
      <path d="M11.35443,113.72064c-1.52606,0-2.63507,1.86316-2.63507,5.36859,0,3.34894,1.03,5.25086,2.61493,5.25086,1.78332,0,2.63507-2.081,2.63507-5.36859C13.96936,115.80164,13.15717,113.72064,11.35443,113.72064Z" />
      <path d="M32.42163,44.78784a2.53783,2.53783,0,0,0,1.96161-2.33826A2.00115,2.00115,0,0,0,32.20392,40.35a2.04775,2.04775,0,0,0-2.23828,2.06006C29.96564,43.69812,30.936,44.391,32.42163,44.78784Z" />
      <path d="M31.92639,46.03564a2.79783,2.79783,0,0,0-2.31811,2.65442A2.382,2.382,0,0,0,32.18451,51.147,2.33,2.33,0,0,0,34.76,48.849C34.76,47.28339,33.67029,46.53088,31.92639,46.03564Z" />
      <path
        d="M75.68,0H10A10,10,0,0,0,0,10V118a10,10,0,0,0,10,10H75.68a10,10,0,0,0,10-10V10A10,10,0,0,0,75.68,0ZM11.23505,125.68707c-2.51569,0-4.22-2.35681-4.25959-6.61718,0-4.31843,1.86243-6.69623,4.47742-6.69623,2.71411,0,4.25946,2.41656,4.25946,6.5188C15.71234,123.27057,14.088,125.68707,11.23505,125.68707Zm.53473-36.93774-2.239,1.20825-.33636-1.326L12.007,87.12488h1.48651v12.87787H11.80933V88.74933ZM16.0592,72.52H14.25653v3.507H12.61188V72.52H6.62866V71.37134l5.7461-8.22223h1.88177v8.00452H16.0592ZM7.28241,40.76544V39.31921h8.123v1.14942L9.7981,52.19708H7.99542l5.58716-11.39129v-.04035Zm24.882,79.5127a1.24983,1.24983,0,1,1,1.1889-1.2486A1.16678,1.16678,0,0,1,32.16443,120.27814Zm4.12121-20.16651H28.06335V99.04211l1.36713-1.32763c3.28925-3.12952,4.775-4.79431,4.79431-6.73657a2.29682,2.29682,0,0,0-2.55523-2.5149,4.38514,4.38514,0,0,0-2.73432,1.08887l-.55487-1.2276A5.65043,5.65043,0,0,1,32.02606,87.016a3.62327,3.62327,0,0,1,3.94257,3.74414c0,2.37781-1.72363,4.29907-4.43781,6.914l-1.03076.95179v.03869h5.78558Zm-5.57708-31.0285a13.27585,13.27585,0,0,0-1.78339.13873l.8324-6.18164h6.1615v1.46637h-4.9137l-.49524,3.3086a6.8912,6.8912,0,0,1,1.05017-.079,5.44869,5.44869,0,0,1,2.77381.69281,3.67377,3.67377,0,0,1,1.84222,3.30938A4.46779,4.46779,0,0,1,31.382,76.13586a6.31229,6.31229,0,0,1-3.20935-.79211l.43555-1.32758a5.75719,5.75719,0,0,0,2.75366.713,2.8414,2.8414,0,0,0,3.05127-2.794C34.393,70.272,33.28394,69.08313,30.70856,69.08313Zm1.43567-16.66827c-2.694,0-4.31842-1.60425-4.31842-3.48682A3.67877,3.67877,0,0,1,30.381,45.48071l-.01935-.0589A3.19,3.19,0,0,1,28.321,42.52942c0-2.04065,1.72376-3.428,3.98212-3.428,2.49634,0,3.74414,1.56561,3.74414,3.16986a3.272,3.272,0,0,1-2.11969,3.01178v.05884a3.56987,3.56987,0,0,1,2.59564,3.3288C36.52319,50.909,34.60107,52.41486,32.14423,52.41486ZM58.374,121.56628H48.15137v-1.189H58.374Zm0-3.88293H48.15137v-1.1889H58.374ZM55.76874,46.24042a3.77991,3.77991,0,0,1-3.03107,1.38641,3.72992,3.72992,0,0,1-3.80389-3.9425,4.41524,4.41524,0,0,1,4.39831-4.57654c2.63507,0,4.25952,2.13983,4.25952,5.42828A8.13679,8.13679,0,0,1,55.37274,50.579a6.44323,6.44323,0,0,1-3.74414,1.72363,8.14521,8.14521,0,0,1-1.6051.09918V50.975a7.26283,7.26283,0,0,0,1.40668-.0597,4.84545,4.84545,0,0,0,2.694-1.24774,5.64942,5.64942,0,0,0,1.70428-3.42712ZM51.02405,64.9425a7.00568,7.00568,0,0,1,4.12079-1.90185,8.29314,8.29314,0,0,1,1.26794-.09924v1.426a6.29,6.29,0,0,0-1.30743.07984A5.23175,5.23175,0,0,0,50.628,69.02386h.05884a3.92515,3.92515,0,0,1,6.9939,2.67463,4.30609,4.30609,0,0,1-4.27887,4.53613c-2.75446,0-4.55719-2.139-4.55719-5.488A8.09533,8.09533,0,0,1,51.02405,64.9425Zm1.12878,28.79957h-.97027V92.43542h.97027c1.26795,0,2.873-.655,2.873-2.17938,0-1.03082-.65411-1.94226-2.25842-1.94226a4.73627,4.73627,0,0,0-2.57538.85175l-.45575-1.26795a6.12076,6.12076,0,0,1,3.36749-.99048c2.53589,0,3.68524,1.50507,3.68524,3.07148a3.19769,3.19769,0,0,1-2.37781,3.03112v.0387a3.35618,3.35618,0,0,1,2.873,3.30859c0,2.06165-1.6051,3.86353-4.69507,3.86353a6.545,6.545,0,0,1-3.34814-.87109l.4751-1.347a5.83762,5.83762,0,0,0,2.85284.8114c2.23908,0,2.932-1.426,2.9126-2.49554C55.46143,94.51477,53.837,93.74207,52.15283,93.74207Zm28.07276,25.86261h-4.4773v4.69586H74.48035v-4.69586H70.0022v-1.18891h4.47815v-4.65558h1.26794v4.65558h4.4773ZM72.6474,66.834l1.20825-.69366,1.2284,2.75366h.03955l1.20825-2.773,1.1889.67346L75.639,69.27063v.03955l2.99164-.39606v1.347L75.639,69.9046v.03955l1.90191,2.37775-1.24853.71387-1.18891-2.77466H75.0639l-1.28729,2.794-1.12921-.7138,1.88177-2.41657v-.03949l-2.93194.37586v-1.347l2.91254.37665v-.03949Zm-.97113-13.8944,5.52747-14.3628h1.34783l-5.54766,14.3628Zm5.8844,39.98059v1.28729H72.66718V92.92017ZM80.22559,33.96H5.52V4.2H80.22559Z"
      />
      <path
        d="M53.19336,40.43542c-1.48572,0-2.53595,1.30744-2.53595,3.13031a2.47752,2.47752,0,0,0,2.47626,2.73353,2.88184,2.88184,0,0,0,2.53582-1.347,1.14784,1.14784,0,0,0,.15894-.634C55.82843,42.11957,55.01624,40.43542,53.19336,40.43542Z"
      />
      <path d="M53.40186,74.8877c1.505,0,2.51568-1.2486,2.51568-3.09089,0-1.84222-1.05017-2.952-2.65448-2.952a2.86685,2.86685,0,0,0-2.49634,1.58569,1.47875,1.47875,0,0,0-.19842.77277C50.60785,73.32288,51.579,74.8877,53.40186,74.8877Z" />
    </g>
  </g>
</svg>
